<?xml version="1.0" standalone="no"?>
<!DOCTYPE svg PUBLIC "-//W3C//DTD SVG 20010904//EN"
 "http://www.w3.org/TR/2001/REC-SVG-20010904/DTD/svg10.dtd">
<svg version="1.0" xmlns="http://www.w3.org/2000/svg"
 width="512.000000pt" height="512.000000pt" viewBox="0 0 512.000000 512.000000"
 preserveAspectRatio="xMidYMid meet">

<g transform="translate(0.000000,512.000000) scale(0.100000,-0.100000)"
fill="#000000" stroke="none">
<path d="M1553 4332 c-551 -318 -1009 -584 -1017 -591 -14 -12 -16 -130 -16
-1181 0 -1099 1 -1168 18 -1182 32 -28 2006 -1162 2022 -1162 16 0 1990 1134
2023 1162 16 14 17 83 17 1182 0 1099 -1 1168 -17 1182 -10 8 -134 82 -275
163 l-257 147 42 52 c76 94 102 117 168 157 112 65 182 167 183 267 1 68 -23
92 -93 92 -100 -1 -213 -89 -274 -213 -27 -55 -56 -93 -124 -159 l-88 -88
-650 375 c-357 206 -652 375 -655 375 -3 0 -456 -260 -1007 -578z m1631 121
c331 -190 603 -348 606 -351 5 -4 -62 -69 -292 -284 l-125 -118 -59 22 c-50
19 -80 22 -199 22 -129 0 -145 -2 -207 -26 -229 -91 -368 -291 -368 -530 0
-166 52 -292 165 -404 117 -116 236 -164 410 -164 180 0 294 46 415 169 115
116 160 228 160 396 0 104 -17 180 -59 263 l-29 57 184 225 c102 124 191 231
199 239 11 12 52 -9 269 -134 l256 -148 0 -1127 0 -1127 -967 -559 c-533 -307
-975 -558 -983 -558 -11 0 -1184 669 -1208 689 -2 2 284 314 353 384 l33 33
63 -22 c47 -17 95 -24 176 -28 101 -4 121 -2 196 21 55 18 107 43 153 75 65
46 134 113 134 130 0 4 -40 48 -90 97 l-89 89 -51 -48 c-90 -84 -203 -114
-312 -82 -121 35 -192 138 -192 282 -1 70 3 88 29 139 90 176 335 205 483 57
24 -24 49 -42 56 -40 19 5 166 173 166 191 0 23 -109 118 -177 154 -86 46
-171 66 -283 66 -160 0 -283 -49 -399 -158 -76 -72 -130 -163 -156 -261 -19
-75 -19 -229 0 -306 l16 -60 -118 -125 c-65 -70 -169 -181 -231 -247 -63 -67
-117 -122 -122 -124 -5 -2 -92 45 -194 104 l-186 107 0 1127 0 1127 973 561
c546 316 978 560 986 557 8 -3 285 -162 615 -352z m-59 -991 c-17 -16 -90 -87
-163 -158 l-134 -129 7 50 c20 147 137 264 265 265 l55 0 -30 -28z m273 -289
c-7 -126 -63 -220 -157 -267 -49 -25 -129 -40 -148 -28 -7 4 48 76 144 190 85
100 157 182 160 182 3 0 4 -35 1 -77z"/>
<path d="M2324 4569 c-324 -195 -504 -311 -504 -325 0 -7 5 -16 10 -19 11 -7
173 76 507 261 l223 123 232 -133 c250 -143 565 -315 716 -390 85 -43 112 -49
112 -26 0 25 -1019 640 -1061 640 -9 0 -115 -59 -235 -131z"/>
<path d="M1434 4046 c-188 -94 -399 -214 -596 -337 l-130 -82 7 -111 c7 -119
9 -126 29 -126 15 0 26 63 26 146 l0 52 123 65 c182 96 402 226 580 343 144
95 172 121 140 131 -6 2 -86 -34 -179 -81z"/>
<path d="M4000 3823 c0 -23 82 -85 232 -177 l103 -63 7 -130 c9 -156 19 -208
38 -208 20 0 30 81 33 254 l2 135 -40 27 c-51 35 -311 166 -347 175 -23 5 -28
3 -28 -13z"/>
<path d="M1495 3718 c-3 -7 -4 -254 -3 -548 l3 -535 140 0 140 0 3 163 2 162
59 0 59 0 114 -165 113 -164 163 -1 c134 0 164 3 168 15 4 9 -44 85 -119 191
l-125 177 36 27 c103 76 134 142 140 292 5 125 -10 187 -62 258 -36 49 -106
93 -190 117 -73 22 -633 32 -641 11z m550 -263 c81 -33 73 -186 -10 -221 -23
-9 -72 -14 -145 -14 l-110 0 0 125 0 125 115 0 c78 0 127 -5 150 -15z"/>
<path d="M725 3258 c-20 -58 -34 -1312 -18 -1632 l6 -137 123 -65 c68 -36 129
-62 134 -59 24 15 1 38 -93 98 l-99 62 2 329 c0 181 2 332 4 335 6 9 -12 898
-20 995 -5 63 -10 86 -21 86 -7 0 -16 -6 -18 -12z"/>
<path d="M4233 3145 c-65 -28 -125 -78 -161 -133 -19 -31 -45 -65 -56 -75 -31
-26 -348 -260 -616 -454 -129 -94 -291 -214 -360 -266 l-125 -95 -6 177 c-3
97 -6 177 -7 179 -1 1 -64 1 -139 0 l-138 -3 0 -545 0 -545 129 -3 c86 -2 133
1 142 9 11 9 14 44 14 148 l0 137 39 38 c22 21 44 35 50 32 5 -4 70 -88 143
-187 l133 -179 155 2 c130 3 155 5 158 19 1 8 -83 134 -187 280 l-190 264 67
65 c37 36 244 232 460 435 356 335 400 373 465 403 112 52 185 133 202 224 6
31 3 41 -19 62 -20 21 -35 26 -73 26 -26 -1 -63 -7 -80 -15z"/>
<path d="M4356 2788 c-8 -51 -27 -798 -21 -808 2 -3 5 -107 6 -231 l1 -224
-78 -52 c-44 -29 -80 -58 -82 -63 -9 -27 35 -17 126 29 l100 50 7 168 c8 181
-2 1010 -13 1108 -5 44 -11 61 -23 63 -13 2 -18 -8 -23 -40z"/>
<path d="M3905 1271 c-338 -174 -893 -493 -1223 -702 l-123 -78 -49 30 c-46
28 -70 31 -70 9 0 -14 104 -90 123 -90 54 0 1014 551 1434 824 81 52 88 59 70
74 -9 8 -52 -10 -162 -67z"/>
<path d="M1545 1050 c-4 -6 -1 -18 6 -27 19 -22 274 -189 399 -260 135 -78
385 -203 405 -203 21 0 19 30 -2 46 -59 45 -261 175 -383 245 -124 71 -397
209 -413 209 -3 0 -9 -5 -12 -10z"/>
</g>
</svg>
